<svg id="Group_857" data-name="Group 857" xmlns="http://www.w3.org/2000/svg" width="12" height="13.2" viewBox="0 0 12 13.2">
  <path id="Path_3515" data-name="Path 3515" d="M3.533,1.527A1.832,1.832,0,0,1,4.821,1H9.98a.61.61,0,0,1,.429.176l3.338,3.3a.6.6,0,0,1,.178.424v7.5a1.79,1.79,0,0,1-.533,1.273A1.831,1.831,0,0,1,12.1,14.2h-8.5a.6.6,0,1,1,0-1.2h8.5a.611.611,0,0,0,.429-.176.6.6,0,0,0,.178-.424V5.149L9.728,2.2H4.821a.611.611,0,0,0-.429.176.6.6,0,0,0-.178.424V5.2A.607.607,0,0,1,3,5.2V2.8a1.79,1.79,0,0,1,.533-1.273Z" transform="translate(-1.925 -1)" fill="#fff" fill-rule="evenodd"/>
  <path id="Path_3516" data-name="Path 3516" d="M13.491,1a.5.5,0,0,1,.491.507V4.045h2.455a.508.508,0,0,1,0,1.015H13.491A.5.5,0,0,1,13,4.552V1.507A.5.5,0,0,1,13.491,1Z" transform="translate(-5.301 -0.759)" fill="#fff" fill-rule="evenodd"/>
  <path id="Path_3517" data-name="Path 3517" d="M1,14.538A.538.538,0,0,1,1.538,14H6.913a.538.538,0,0,1,0,1.075H1.538A.538.538,0,0,1,1,14.538Z" transform="translate(-1 -6.119)" fill="#fff" fill-rule="evenodd"/>
  <path id="Path_3518" data-name="Path 3518" d="M8.157,11.157a.538.538,0,0,1,.76,0L10.53,12.77a.538.538,0,0,1,0,.76L8.918,15.143a.538.538,0,1,1-.76-.76L9.39,13.15,8.157,11.918A.538.538,0,0,1,8.157,11.157Z" transform="translate(-3.654 -4.643)" fill="#fff" fill-rule="evenodd"/>
</svg>
