<svg xmlns="http://www.w3.org/2000/svg" width="17.395" height="18.153" viewBox="0 0 17.395 18.153">
  <g id="Group_1463" data-name="Group 1463" transform="translate(0.075 0.078)">
    <path id="Path_3598" data-name="Path 3598" d="M28.016,14.969l-.224-1.742a.352.352,0,0,0-.394-.3l-1.248.161-.983-7.658a.352.352,0,0,0-.393-.3l-.685.088-.63-4.9a.352.352,0,0,0-.393-.3L16.52.842a.352.352,0,0,0-.3.394l.629,4.9-.337.043L16.056,2.65a1.689,1.689,0,0,0-1.888-1.458l-3.085.4a.352.352,0,0,0-.3.394l.179,1.391a.352.352,0,0,0,.393.3l2.317-.3L15.041,14q-.076.082-.144.17A2.374,2.374,0,0,0,16.775,18a2.392,2.392,0,0,0,.3-.019,2.359,2.359,0,0,0,1.577-.9,2.384,2.384,0,0,0,.334-.587l8.723-1.128a.352.352,0,0,0,.3-.394ZM20.769,1.006l.225,1.749L20.2,2.529a.351.351,0,0,0-.275.035l-.708.418L19,1.233ZM18.3,1.323,18.59,3.6a.352.352,0,0,0,.528.258l1.037-.613,1.159.331a.352.352,0,0,0,.445-.383L21.467.916l1.34-.172L23.391,5.3l-5.848.75-.585-4.554,1.34-.172Zm3.708,7.214-1.07-.306a.352.352,0,0,0-.275.035l-.959.566-.3-2.313,2.3-.3Zm-7.685-5.6a.352.352,0,0,0-.393-.3l-2.317.3-.089-.693,2.736-.351a.985.985,0,0,1,1.1.85l1.35,10.513q-.116,0-.234.018a2.377,2.377,0,0,0-.787.244ZM18.1,16.647a1.671,1.671,0,1,1,.335-1.234,1.661,1.661,0,0,1-.335,1.234Zm.254-4.953a.352.352,0,0,0-.3.394l.217,1.691a2.386,2.386,0,0,0-.828-.433L16.6,6.879l2.108-.27.365,2.843a.352.352,0,0,0,.528.258l1.288-.761,1.438.411a.352.352,0,0,0,.445-.383l-.365-2.843,2.108-.27.938,7.31-.769.1-.257-2a.352.352,0,0,0-.393-.3l-5.681.729Zm5.422.013.213,1.656L19,14.008l-.213-1.661,4.983-.639Zm-4.627,4.053a2.4,2.4,0,0,0-.016-.437,2.368,2.368,0,0,0-.16-.6l8.167-1.056.134,1.045Z" transform="translate(-10.776 0)" fill="#fff" stroke="#fff" stroke-width="0.15"/>
    <path id="Path_3599" data-name="Path 3599" d="M225.583,280.378a.329.329,0,0,0-.02-.066.37.37,0,0,0-.032-.061.358.358,0,0,0-.044-.053.336.336,0,0,0-.053-.044.356.356,0,0,0-.061-.032.362.362,0,0,0-.066-.02.344.344,0,0,0-.137,0,.356.356,0,0,0-.127.052.342.342,0,0,0-.1.1.348.348,0,0,0-.052.264.363.363,0,0,0,.02.066.355.355,0,0,0,.032.06.336.336,0,0,0,.044.053.358.358,0,0,0,.053.044.353.353,0,0,0,.264.052.368.368,0,0,0,.066-.02.354.354,0,0,0,.158-.13.38.38,0,0,0,.032-.06.337.337,0,0,0,.02-.066.353.353,0,0,0,.007-.069A.347.347,0,0,0,225.583,280.378Zm-1.222.181a.352.352,0,0,0-.393-.3l-4.013.515a.352.352,0,0,0,.044.7l.045,0,4.013-.515A.352.352,0,0,0,224.361,280.559Z" transform="translate(-212.304 -270.248)" fill="#fff"/>
  </g>
</svg>
