<svg xmlns="http://www.w3.org/2000/svg" width="18" height="16.815" viewBox="0 0 18 16.815">
  <path id="Path_3606" data-name="Path 3606" d="M17.876,31.417a.453.453,0,0,0-.341-.152H15.17V18.719A1.875,1.875,0,0,0,13.3,16.845H2.1A2.112,2.112,0,0,0,0,18.738a.458.458,0,0,0,.455.5h3.2V31.546A2.116,2.116,0,0,0,5.763,33.66H15.888a2.12,2.12,0,0,0,2.1-1.886.451.451,0,0,0-.114-.357ZM.572,18.678a1.552,1.552,0,0,1,3.052,0ZM5.763,33.1a1.553,1.553,0,0,1-1.551-1.551V18.959a2.109,2.109,0,0,0-.679-1.551H13.3a1.312,1.312,0,0,1,1.31,1.311V31.265H7.764a.455.455,0,0,0-.456.417A1.563,1.563,0,0,1,5.763,33.1Zm10.125,0h-8.7a2.115,2.115,0,0,0,.667-1.27h9.556a1.548,1.548,0,0,1-1.526,1.27ZM8.519,20.244a.281.281,0,0,1,.281-.281h4.113a.281.281,0,1,1,0,.562H8.8a.281.281,0,0,1-.281-.281Zm0,2.205a.281.281,0,0,1,.281-.281h4.113a.281.281,0,1,1,0,.562H8.8a.281.281,0,0,1-.281-.281Zm0,2.205a.281.281,0,0,1,.281-.281h4.113a.281.281,0,1,1,0,.562H8.8a.281.281,0,0,1-.281-.281Zm0,2.205a.281.281,0,0,1,.281-.281h4.113a.281.281,0,0,1,0,.562H8.8a.281.281,0,0,1-.281-.281Zm0,2.205a.281.281,0,0,1,.281-.281h4.113a.281.281,0,1,1,0,.562H8.8a.281.281,0,0,1-.281-.281ZM5.691,20.258a.281.281,0,1,1,.43-.362l.348.413.629-.747a.281.281,0,1,1,.43.362l-.844,1a.281.281,0,0,1-.43,0Zm0,2.205a.281.281,0,1,1,.43-.362l.348.413.629-.747a.281.281,0,0,1,.43.362l-.844,1a.281.281,0,0,1-.43,0Zm0,2.205a.281.281,0,1,1,.43-.362l.348.413.629-.747a.281.281,0,0,1,.43.362l-.844,1a.281.281,0,0,1-.43,0Zm0,2.206a.281.281,0,1,1,.43-.362l.348.413.629-.748a.281.281,0,1,1,.43.362l-.844,1a.281.281,0,0,1-.215.1h0a.281.281,0,0,1-.215-.1Zm1.837,1.87-.844,1a.281.281,0,0,1-.215.1h0a.281.281,0,0,1-.215-.1l-.563-.669a.281.281,0,1,1,.43-.362l.348.413.629-.748a.281.281,0,1,1,.43.362Zm-5.779-8.5H1.374a.658.658,0,0,0-.657.657v.543H.274a.281.281,0,0,0-.281.281v5.025a.281.281,0,1,0,.562,0V22.006H.717V32.018a.312.312,0,0,0,.028.129l.523,1.313a.312.312,0,0,0,.289.2h.006a.315.315,0,0,0,.294-.2l.526-1.322,0-.01a.312.312,0,0,0,.021-.112V20.9a.658.658,0,0,0-.657-.657Zm-.47.657a.1.1,0,0,1,.094-.094H1.75a.1.1,0,0,1,.094.094v.543H1.28Zm.565,1.105v9.731H1.28V22.006ZM1.411,32.3h.3l-.151.38Z" transform="translate(0.007 -16.845)" fill="#fff"/>
</svg>
