<svg xmlns="http://www.w3.org/2000/svg" width="16" height="16" viewBox="0 0 16 16">
  <g id="Group_1507" data-name="Group 1507" transform="translate(-2 -2)">
    <path id="Path_3609" data-name="Path 3609" d="M10,2a.8.8,0,0,1,.8.8V5.2a.8.8,0,0,1-1.6,0V2.8A.8.8,0,0,1,10,2ZM6,3.072a.8.8,0,0,1,1.093.293l1.2,2.078a.8.8,0,1,1-1.386.8l-1.2-2.078A.8.8,0,0,1,6,3.072ZM3.072,6a.8.8,0,0,1,1.093-.293l2.078,1.2a.8.8,0,1,1-.8,1.386l-2.078-1.2A.8.8,0,0,1,3.072,6ZM2,10a.8.8,0,0,1,.8-.8H5.2a.8.8,0,0,1,0,1.6H2.8A.8.8,0,0,1,2,10Zm12,0a.8.8,0,0,1,.8-.8h2.4a.8.8,0,0,1,0,1.6H14.8A.8.8,0,0,1,14,10ZM6.536,12a.8.8,0,0,1-.293,1.093l-2.078,1.2a.8.8,0,1,1-.8-1.386l2.078-1.2A.8.8,0,0,1,6.536,12Zm6.928,0a.8.8,0,0,1,1.093-.293l2.078,1.2a.8.8,0,1,1-.8,1.386l-2.078-1.2A.8.8,0,0,1,13.464,12ZM12,13.464a.8.8,0,0,1,1.093.293l1.2,2.078a.8.8,0,1,1-1.386.8l-1.2-2.078A.8.8,0,0,1,12,13.464Zm-4,0a.8.8,0,0,1,.293,1.093l-1.2,2.078a.8.8,0,1,1-1.386-.8l1.2-2.078A.8.8,0,0,1,8,13.464ZM10,14a.8.8,0,0,1,.8.8v2.4a.8.8,0,0,1-1.6,0V14.8A.8.8,0,0,1,10,14Z" fill="#09f" fill-rule="evenodd"/>
  </g>
</svg>
