<svg xmlns="http://www.w3.org/2000/svg" width="12.676" height="16" viewBox="0 0 12.676 16">
  <g id="Group_1517" data-name="Group 1517" transform="translate(-0.5)">
    <path id="Path_3613" data-name="Path 3613" d="M9.122.124A.387.387,0,0,0,8.844,0H2.6A2.111,2.111,0,0,0,.5,2.1V13.9A2.111,2.111,0,0,0,2.6,16h8.471a2.111,2.111,0,0,0,2.1-2.1V4.529a.416.416,0,0,0-.112-.271Zm.112,1.241,2.64,2.771H10.158a.92.92,0,0,1-.924-.92Zm1.84,13.863H2.6A1.339,1.339,0,0,1,1.273,13.9V2.1A1.339,1.339,0,0,1,2.6.773H8.461V3.215a1.691,1.691,0,0,0,1.7,1.693H12.4V13.9A1.336,1.336,0,0,1,11.074,15.227Zm0,0" fill="#fff"/>
    <path id="Path_3614" data-name="Path 3614" d="M95.92,177.536H89.558a.386.386,0,0,0,0,.773h6.365a.386.386,0,1,0,0-.773Zm-3.463-1.387a.384.384,0,0,0,.564,0l2.265-2.431a.386.386,0,0,0-.564-.526l-1.6,1.712v-4.22a.386.386,0,1,0-.773,0v4.22l-1.592-1.712a.386.386,0,1,0-.564.526Zm0,0" transform="translate(-85.901 -164.975)" fill="#fff"/>
  </g>
</svg>
