<svg xmlns="http://www.w3.org/2000/svg" width="16" height="15.031" viewBox="0 0 16 15.031">
  <g id="_1009" data-name="1009" transform="translate(0 -15.5)">
    <path id="Path_3601" data-name="Path 3601" d="M95,111.634l-3.018-.314v-3.583a1.156,1.156,0,1,0-2.312,0v6h-.01l-1.141-.953a1.112,1.112,0,1,0-1.425,1.707l2.317,1.933h6.823V113.03A1.406,1.406,0,0,0,95,111.634ZM89.67,118.3a.469.469,0,0,0,.469.469h5.625a.469.469,0,0,0,.469-.469v-.937H89.67Z" transform="translate(-83.984 -88.235)" fill="#fff"/>
    <path id="Path_3602" data-name="Path 3602" d="M3.29,15.5h9.42a3.29,3.29,0,0,1,0,6.581H8.936V19.5a2.1,2.1,0,0,0-2.089-2.094h0A2.1,2.1,0,0,0,4.748,19.5V22.08H3.271A3.29,3.29,0,0,1,3.29,15.5Zm9.33,5.276a2.008,2.008,0,0,1-.89-.038l-.058.223a.253.253,0,0,1-.464.061l-.453-.785a.253.253,0,0,1,.092-.345l.785-.453a.253.253,0,0,1,.369.286l-.14.521A1.494,1.494,0,0,0,13.01,20.1a1.516,1.516,0,1,0-2.265-1.18.246.246,0,0,1-.126.227.253.253,0,0,1-.379-.2,2.02,2.02,0,1,1,2.38,1.83Z" fill="#fff" fill-rule="evenodd"/>
  </g>
</svg>
