<svg xmlns="http://www.w3.org/2000/svg" width="16" height="16.001" viewBox="0 0 16 16.001">
  <g id="Group_1498" data-name="Group 1498" transform="translate(-0.085 0)">
    <path id="Path_3603" data-name="Path 3603" d="M12.573,1.377l.814-.186a.482.482,0,0,0-.215-.94L11.208.7a.482.482,0,0,0-.362.577l.449,1.965a.482.482,0,1,0,.94-.215L12.04,2.18A7.038,7.038,0,0,1,8.1,15.037a7.162,7.162,0,0,1-.793-.044.482.482,0,1,0-.107.958,8.131,8.131,0,0,0,.9.05A8,8,0,0,0,12.573,1.377ZM4.793,12.664a.482.482,0,0,0-.94.215l.2.893A7.037,7.037,0,0,1,8.864,1.008.482.482,0,0,0,8.971.05a8,8,0,0,0-5.5,14.488l-.772.176a.482.482,0,1,0,.215.94l1.964-.449a.482.482,0,0,0,.362-.577Zm0,0" transform="translate(0 0)" fill="#fff"/>
    <g id="Group_1499" data-name="Group 1499" transform="translate(0.585 1.918)">
      <path id="Layer_10" data-name="Layer 10" d="M8.9,3.634V2.172l1.487,1.735H9.176A.272.272,0,0,1,8.9,3.634Zm.272.817a.817.817,0,0,1-.817-.817V2H4.817A.817.817,0,0,0,4,2.817V8.81a.817.817,0,0,0,.817.817h4.9a.817.817,0,0,0,.817-.817V4.452Z" transform="translate(0.231 0.27)" fill="#fff"/>
    </g>
  </g>
</svg>
