<?xml version="1.0" encoding="utf-8"?>
<!-- Generator: Adobe Illustrator 25.2.1, SVG Export Plug-In . SVG Version: 6.00 Build 0)  -->
<svg version="1.1" id="Layer_1" xmlns="http://www.w3.org/2000/svg" xmlns:xlink="http://www.w3.org/1999/xlink" x="0px" y="0px"
	 viewBox="0 0 135.7 158.2" style="enable-background:new 0 0 135.7 158.2;" xml:space="preserve">
<style type="text/css">
	.st0{fill:none;}
	.st1{fill:#EEFBFF;}
	.st2{fill:#E1F7FF;}
</style>
<g>
	<path class="st0" d="M4.8,136.4C-9.8,77.9,25.9,18.6,84.4,4c17.4-4.3,34.9-4.2,51.2-0.4V0H0v158.2h12.8
		C9.4,151.4,6.7,144.1,4.8,136.4z"/>
	<path class="st1" d="M84.4,4C25.9,18.6-9.8,77.9,4.8,136.4c1.9,7.7,4.6,15,8,21.8H68c-0.7-2.1-1.4-4.3-2-6.6
		c-10.6-42.4,15.2-85.4,57.7-96c4-1,8-1.7,12-2V3.5C119.3-0.3,101.8-0.4,84.4,4z"/>
	<path class="st2" d="M66,151.7c0.6,2.2,1.2,4.4,2,6.6h67.7V53.7c-4,0.4-8,1-12,2C81.3,66.3,55.4,109.2,66,151.7z"/>
</g>
</svg>
