<svg width="136" height="159" viewBox="0 0 136 159" fill="none" xmlns="http://www.w3.org/2000/svg">
<g clip-path="url(#clip0_1_2)">
<path d="M84.4 154.2C25.9 139.6 -9.8 80.3 4.8 21.8C6.7 14.1 9.4 6.8 12.8 1.90735e-06H68C67.3 2.1 66.6 4.29999 66 6.59999C55.4 49 81.2 92 123.7 102.6C127.7 103.6 131.7 104.3 135.7 104.6V154.7C119.3 158.5 101.8 158.6 84.4 154.2Z" fill="#EEFBFF"/>
<path d="M66 6.5C66.6 4.3 67.2 2.09999 68 -0.10001H135.7V104.5C131.7 104.1 127.7 103.5 123.7 102.5C81.3 91.9 55.4 49 66 6.5Z" fill="#E1F7FF"/>
</g>
<defs>
<clipPath id="clip0_1_2">
<rect width="135.7" height="158.2" fill="white" transform="matrix(1 0 0 -1 0 158.2)"/>
</clipPath>
</defs>
</svg>
