<svg id="Group_477" data-name="Group 477" xmlns="http://www.w3.org/2000/svg" width="28" height="28" viewBox="0 0 28 28">
  <rect id="Rectangle_703" data-name="Rectangle 703" width="28" height="28" rx="5" fill="#48b2a1"/>
  <g id="Group_658" data-name="Group 658" transform="translate(2 2)">
    <g id="_x30_3" transform="translate(3 3)">
      <path id="Path_3550" data-name="Path 3550" d="M19.587,13.828l-5.374-2.067V9.929A1.931,1.931,0,0,0,12.285,8H9.714A1.931,1.931,0,0,0,7.785,9.929v1.833L2.412,13.828a.643.643,0,1,0,.461,1.2L11,11.9l8.126,3.126a.643.643,0,0,0,.462-1.2Zm-8.819-3.214-1.7.653V9.929a.644.644,0,0,1,.643-.643h2.571a.643.643,0,0,1,.643.643v1.338l-1.7-.653a.643.643,0,0,0-.461,0Z" transform="translate(-2 -4.143)" fill="#fff"/>
      <path id="Path_3551" data-name="Path 3551" d="M18.5,19a.643.643,0,0,0-.643.643v5.143H6.286V19.643a.643.643,0,1,0-1.286,0v5.786a.643.643,0,0,0,.643.643H18.5a.643.643,0,0,0,.643-.643V19.643A.643.643,0,0,0,18.5,19Z" transform="translate(-3.071 -8.072)" fill="#fff"/>
      <path id="Path_3552" data-name="Path 3552" d="M16.857,3.929a1.929,1.929,0,1,0-1.929,1.929A1.931,1.931,0,0,0,16.857,3.929Zm-1.929.643a.643.643,0,1,1,.643-.643A.644.644,0,0,1,14.929,4.571Z" transform="translate(-5.928 -2)" fill="#fff"/>
      <path id="Path_3553" data-name="Path 3553" d="M13.618,23.025a.645.645,0,0,0,.478,0L17.31,21.74a.643.643,0,0,0,.4-.6V17.929a.643.643,0,0,0-.4-.6L14.1,16.046a.648.648,0,0,0-.478,0L10.4,17.332a.644.644,0,0,0-.4.6v3.214a.644.644,0,0,0,.4.6Zm-2.332-4.147,1.929.771v1.829l-1.929-.771Zm3.214,2.6V19.65l1.929-.771v1.829Zm-.643-4.144,1.483.593-1.483.593-1.483-.593Z" transform="translate(-4.857 -7)" fill="#fff"/>
    </g>
  </g>
</svg>
