<svg width="28" height="28" viewBox="0 0 28 28" fill="none" xmlns="http://www.w3.org/2000/svg">
<g clip-path="url(#clip0_1_27)">
<path d="M23 0H5C2.23858 0 0 2.23858 0 5V23C0 25.7614 2.23858 28 5 28H23C25.7614 28 28 25.7614 28 23V5C28 2.23858 25.7614 0 23 0Z" fill="#48B2A1"/>
<path d="M22.9167 14.375V8.125C22.9167 6.39917 21.5175 5 19.7917 5C16.645 5 11.2717 5 8.125 5C6.39917 5 5 6.39917 5 8.125V19.7917C5 21.5175 6.39917 22.9167 8.125 22.9167H14.375C14.72 22.9167 15 22.6367 15 22.2917C15 21.9467 14.72 21.6667 14.375 21.6667H8.125C7.08917 21.6667 6.25 20.8275 6.25 19.7917V8.125C6.25 7.08917 7.08917 6.25 8.125 6.25H19.7917C20.8275 6.25 21.6667 7.08917 21.6667 8.125V14.375C21.6667 14.72 21.9467 15 22.2917 15C22.6367 15 22.9167 14.72 22.9167 14.375Z" fill="white"/>
<path d="M22.2917 9.16667H5.625C5.28 9.16667 5 9.44667 5 9.79167C5 10.1367 5.28 10.4167 5.625 10.4167H22.2917C22.6367 10.4167 22.9167 10.1367 22.9167 9.79167C22.9167 9.44667 22.6367 9.16667 22.2917 9.16667Z" fill="white"/>
<path d="M14.5833 8.33333C14.9285 8.33333 15.2083 8.05351 15.2083 7.70833C15.2083 7.36315 14.9285 7.08333 14.5833 7.08333C14.2382 7.08333 13.9583 7.36315 13.9583 7.70833C13.9583 8.05351 14.2382 8.33333 14.5833 8.33333Z" fill="white"/>
<path d="M16.875 8.33333C17.2202 8.33333 17.5 8.05351 17.5 7.70833C17.5 7.36315 17.2202 7.08333 16.875 7.08333C16.5298 7.08333 16.25 7.36315 16.25 7.70833C16.25 8.05351 16.5298 8.33333 16.875 8.33333Z" fill="white"/>
<path d="M19.1667 8.33333C19.5118 8.33333 19.7917 8.05351 19.7917 7.70833C19.7917 7.36315 19.5118 7.08333 19.1667 7.08333C18.8215 7.08333 18.5417 7.36315 18.5417 7.70833C18.5417 8.05351 18.8215 8.33333 19.1667 8.33333Z" fill="white"/>
<path d="M21.6967 18.5717C21.6967 16.8467 20.2958 15.4467 18.5717 15.4467C16.8467 15.4467 15.4467 16.8467 15.4467 18.5717C15.4467 20.2958 16.8467 21.6967 18.5717 21.6967C20.2958 21.6967 21.6967 20.2958 21.6967 18.5717ZM20.4467 18.5717C20.4467 19.6058 19.6058 20.4467 18.5717 20.4467C17.5367 20.4467 16.6967 19.6058 16.6967 18.5717C16.6967 17.5367 17.5367 16.6967 18.5717 16.6967C19.6058 16.6967 20.4467 17.5367 20.4467 18.5717Z" fill="white"/>
<path d="M14.8508 19.1967H16.0717C16.4158 19.1967 16.6967 18.9158 16.6967 18.5717C16.6967 18.2267 16.4158 17.9467 16.0717 17.9467H14.8508C14.5058 17.9467 14.2258 18.2267 14.2258 18.5717C14.2258 18.9158 14.5058 19.1967 14.8508 19.1967Z" fill="white"/>
<path d="M16.3825 21.6442L17.2458 20.7808C17.4892 20.5367 17.4892 20.1408 17.2458 19.8975C17.0017 19.6533 16.6058 19.6533 16.3617 19.8975L15.4983 20.76C15.255 21.0042 15.255 21.4 15.4983 21.6442C15.7425 21.8875 16.1383 21.8875 16.3825 21.6442Z" fill="white"/>
<path d="M19.1967 22.2917V21.0717C19.1967 20.7267 18.9158 20.4467 18.5717 20.4467C18.2267 20.4467 17.9467 20.7267 17.9467 21.0717V22.2917C17.9467 22.6367 18.2267 22.9167 18.5717 22.9167C18.9158 22.9167 19.1967 22.6367 19.1967 22.2917Z" fill="white"/>
<path d="M21.6442 20.76L20.7808 19.8975C20.5367 19.6533 20.1408 19.6533 19.8975 19.8975C19.6533 20.1408 19.6533 20.5367 19.8975 20.7808L20.76 21.6442C21.0042 21.8875 21.4 21.8875 21.6442 21.6442C21.8875 21.4 21.8875 21.0042 21.6442 20.76Z" fill="white"/>
<path d="M22.2917 17.9467H21.0717C20.7267 17.9467 20.4467 18.2267 20.4467 18.5717C20.4467 18.9158 20.7267 19.1967 21.0717 19.1967H22.2917C22.6367 19.1967 22.9167 18.9158 22.9167 18.5717C22.9167 18.2267 22.6367 17.9467 22.2917 17.9467Z" fill="white"/>
<path d="M20.76 15.4983L19.8975 16.3617C19.6533 16.6058 19.6533 17.0017 19.8975 17.2458C20.1408 17.4892 20.5367 17.4892 20.7808 17.2458L21.6442 16.3825C21.8875 16.1383 21.8875 15.7425 21.6442 15.4983C21.4 15.255 21.0042 15.255 20.76 15.4983Z" fill="white"/>
<path d="M17.9467 14.8508V16.0717C17.9467 16.4158 18.2267 16.6967 18.5717 16.6967C18.9158 16.6967 19.1967 16.4158 19.1967 16.0717V14.8508C19.1967 14.5058 18.9158 14.2258 18.5717 14.2258C18.2267 14.2258 17.9467 14.5058 17.9467 14.8508Z" fill="white"/>
<path d="M15.4983 16.3825L16.3617 17.2458C16.6058 17.4892 17.0017 17.4892 17.2458 17.2458C17.4892 17.0017 17.4892 16.6058 17.2458 16.3617L16.3825 15.4983C16.1383 15.255 15.7425 15.255 15.4983 15.4983C15.255 15.7425 15.255 16.1383 15.4983 16.3825Z" fill="white"/>
<path d="M8.125 12.9167H15.625C15.97 12.9167 16.25 12.6367 16.25 12.2917C16.25 11.9467 15.97 11.6667 15.625 11.6667H8.125C7.78 11.6667 7.5 11.9467 7.5 12.2917C7.5 12.6367 7.78 12.9167 8.125 12.9167Z" fill="white"/>
<path d="M8.125 15.4167H13.125C13.47 15.4167 13.75 15.1367 13.75 14.7917C13.75 14.4467 13.47 14.1667 13.125 14.1667H8.125C7.78 14.1667 7.5 14.4467 7.5 14.7917C7.5 15.1367 7.78 15.4167 8.125 15.4167Z" fill="white"/>
<path d="M8.125 17.9167H11.4583C11.8033 17.9167 12.0833 17.6367 12.0833 17.2917C12.0833 16.9467 11.8033 16.6667 11.4583 16.6667H8.125C7.78 16.6667 7.5 16.9467 7.5 17.2917C7.5 17.6367 7.78 17.9167 8.125 17.9167Z" fill="white"/>
</g>
<defs>
<clipPath id="clip0_1_27">
<rect width="28" height="28" fill="white"/>
</clipPath>
</defs>
</svg>
