<svg width="28" height="28" viewBox="0 0 28 28" fill="none" xmlns="http://www.w3.org/2000/svg">
<g clip-path="url(#clip0_1_36)">
<path d="M23 0H5C2.23858 0 0 2.23858 0 5V23C0 25.7614 2.23858 28 5 28H23C25.7614 28 28 25.7614 28 23V5C28 2.23858 25.7614 0 23 0Z" fill="#f95d5d"/>
<path d="M14.3244 6.00006C14.2148 6.00114 14.1065 6.02389 14.0057 6.06705C13.9049 6.11022 13.8135 6.17294 13.7369 6.2516C13.6602 6.33026 13.5998 6.42338 13.559 6.52554C13.5182 6.62769 13.4978 6.73689 13.4991 6.84696V13.5453C13.4992 13.7675 13.5871 13.9806 13.7435 14.1377C13.9 14.2948 14.1121 14.383 14.3333 14.383C14.5545 14.383 14.7667 14.2948 14.9231 14.1377C15.0796 13.9806 15.1675 13.7675 15.1676 13.5453V6.84696C15.1689 6.73538 15.1479 6.62465 15.106 6.52131C15.0641 6.41797 15.002 6.32406 14.9235 6.24516C14.8449 6.16626 14.7515 6.10396 14.6486 6.06186C14.5457 6.01976 14.4355 5.99875 14.3244 6.00006V6.00006ZM19.1865 7.67915C19.1594 7.67836 19.1322 7.67891 19.1051 7.68078C18.9403 7.69483 18.7835 7.75782 18.6544 7.86168C18.5254 7.96554 18.43 8.10557 18.3804 8.26403C18.3309 8.42249 18.3294 8.59222 18.3761 8.75154C18.4228 8.91087 18.5157 9.05262 18.6428 9.15879C20.0865 10.3902 20.9998 12.2229 20.9998 14.281C20.9998 17.9972 18.0289 20.9925 14.3374 20.9925C10.6459 20.9925 7.66845 17.9972 7.66845 14.281C7.66846 12.2348 8.57018 10.4145 9.99941 9.1833C10.0827 9.11192 10.1511 9.02472 10.2009 8.92677C10.2506 8.82881 10.2806 8.72198 10.2892 8.61236C10.2979 8.50275 10.2849 8.39255 10.2511 8.28796C10.2173 8.18338 10.1633 8.08651 10.0922 8.00288C10.0212 7.91924 9.93437 7.85049 9.83684 7.80055C9.73931 7.7506 9.63294 7.72039 9.5238 7.71173C9.41467 7.70308 9.30491 7.71613 9.20078 7.75008C9.09666 7.78404 9.00021 7.83825 8.91695 7.90964C7.13283 9.44659 6.00001 11.7375 6 14.281C5.99999 18.9005 9.74357 22.6667 14.3374 22.6667C18.9312 22.6667 22.6667 18.9005 22.6667 14.281C22.6667 11.7226 21.5226 9.42233 19.7204 7.88513C19.5722 7.75537 19.3831 7.68241 19.1865 7.67915H19.1865Z" fill="white"/>
</g>
<defs>
<clipPath id="clip0_1_36">
<rect width="28" height="28" fill="white"/>
</clipPath>
</defs>
</svg>
