<svg id="Group_477" data-name="Group 477" xmlns="http://www.w3.org/2000/svg" width="28" height="28" viewBox="0 0 28 28">
  <rect id="Rectangle_703" data-name="Rectangle 703" width="28" height="28" rx="5" fill="#ff426b"/>
  <g id="Icon_feather-clipboard" data-name="Icon feather-clipboard" transform="translate(2 4)">
    <path id="Path_3483" data-name="Path 3483" d="M14.4,6h1.4a1.4,1.4,0,0,1,1.4,1.4v9.8a1.4,1.4,0,0,1-1.4,1.4H7.4A1.4,1.4,0,0,1,6,17.2V7.4A1.4,1.4,0,0,1,7.4,6H8.8" transform="translate(0 -1.6)" fill="none" stroke="#fff" stroke-linecap="round" stroke-linejoin="round" stroke-width="2"/>
    <path id="Path_3484" data-name="Path 3484" d="M12.7,3h4.2a.7.7,0,0,1,.7.7V5.1a.7.7,0,0,1-.7.7H12.7a.7.7,0,0,1-.7-.7V3.7A.7.7,0,0,1,12.7,3Z" transform="translate(-3.2)" fill="none" stroke="#fff" stroke-linecap="round" stroke-linejoin="round" stroke-width="2"/>
  </g>
</svg>
