<svg width="28" height="28" viewBox="0 0 28 28" fill="none" xmlns="http://www.w3.org/2000/svg">
<g clip-path="url(#clip0_102_28)">
<path d="M23 0H5C2.23858 0 0 2.23858 0 5V23C0 25.7614 2.23858 28 5 28H23C25.7614 28 28 25.7614 28 23V5C28 2.23858 25.7614 0 23 0Z" fill="#8A5FC0"/>
<g clip-path="url(#clip1_102_28)">
<path d="M21.8272 11.2639C21.6844 11.0952 21.4747 10.9985 21.2519 10.9985H6.74809C6.5255 10.9985 6.31597 11.0952 6.17315 11.2638C6.10744 11.3411 6.05863 11.4314 6.02987 11.5287C6.0011 11.6261 5.99302 11.7283 6.00612 11.829L6.86237 20.7647C6.86312 20.7716 6.86387 20.7785 6.86481 20.7852C6.94012 21.3489 7.41886 21.774 7.97852 21.774H20.0215C20.6099 21.774 21.1006 21.3234 21.1377 20.7647L21.9939 11.8292C22.007 11.7286 21.999 11.6263 21.9703 11.529C21.9416 11.4316 21.8928 11.3414 21.8272 11.2639ZM20.0245 20.6566C20.0239 20.6556 20.0211 20.6551 20.0215 20.6555L7.98839 20.6571C7.98355 20.6549 7.97645 20.6465 7.97423 20.64L7.15727 12.1172H20.8427L20.0245 20.6566Z" fill="white"/>
<path d="M20.5867 8.85028C20.445 8.68716 20.239 8.59357 20.0213 8.59357H7.99695C7.77939 8.59357 7.57246 8.69069 7.42911 8.85997C7.28502 9.03038 7.22274 9.25222 7.2578 9.46156L7.59336 11.6427L8.69904 11.4727L8.42817 9.71212H19.5903L19.3196 11.4727L20.4251 11.6427L20.7614 9.45522C20.7927 9.23491 20.7292 9.01434 20.5867 8.85028Z" fill="white"/>
<path d="M18.9283 6.4831C18.7866 6.31979 18.5804 6.22601 18.3623 6.22601H9.65631C9.43875 6.22601 9.23182 6.32314 9.08848 6.49242C8.9442 6.66282 8.8821 6.88466 8.91735 7.09551L9.25291 9.2394L10.358 9.0664L10.0885 7.34457H17.9263L17.6428 9.06171L18.7464 9.24402L19.1024 7.08857C19.1341 6.86788 19.0706 6.64735 18.9283 6.4831ZM16.3489 14.5219H11.651C11.3421 14.5219 11.0918 14.7723 11.0918 15.0812C11.0918 15.3901 11.3421 15.6405 11.651 15.6405H16.3489C16.6579 15.6405 16.9082 15.3901 16.9082 15.0812C16.9082 14.7723 16.6579 14.5219 16.3489 14.5219Z" fill="white"/>
</g>
</g>
<defs>
<clipPath id="clip0_102_28">
<rect width="28" height="28" fill="white"/>
</clipPath>
<clipPath id="clip1_102_28">
<rect width="16" height="16" fill="white" transform="translate(6 6)"/>
</clipPath>
</defs>
</svg>
