<svg id="Group_477" data-name="Group 477" xmlns="http://www.w3.org/2000/svg" width="28" height="28" viewBox="0 0 28 28">
  <rect id="Rectangle_703" data-name="Rectangle 703" width="28" height="28" rx="5" fill="#19debe"/>
  <g id="Icon_feather-users" data-name="Icon feather-users" transform="translate(5.5 3.5)">
    <path id="Path_3440" data-name="Path 3440" d="M11.682,26.318V25.045A2.545,2.545,0,0,0,9.136,22.5H4.045A2.545,2.545,0,0,0,1.5,25.045v1.273" transform="translate(0 -10.364)" fill="none" stroke="#fff" stroke-linecap="round" stroke-linejoin="round" stroke-width="2"/>
    <path id="Path_3441" data-name="Path 3441" d="M12.591,7.045A2.545,2.545,0,1,1,10.045,4.5,2.545,2.545,0,0,1,12.591,7.045Z" transform="translate(-3.455)" fill="none" stroke="#fff" stroke-linecap="round" stroke-linejoin="round" stroke-width="2"/>
    <path id="Path_3442" data-name="Path 3442" d="M31.909,26.43V25.158A2.545,2.545,0,0,0,30,22.7" transform="translate(-16.409 -10.476)" fill="none" stroke="#fff" stroke-linecap="round" stroke-linejoin="round" stroke-width="2"/>
    <path id="Path_3443" data-name="Path 3443" d="M24,4.7a2.545,2.545,0,0,1,0,4.932" transform="translate(-12.955 -0.112)" fill="none" stroke="#fff" stroke-linecap="round" stroke-linejoin="round" stroke-width="2"/>
  </g>
</svg>
