<svg id="Group_477" data-name="Group 477" xmlns="http://www.w3.org/2000/svg" width="28" height="28" viewBox="0 0 28 28">
  <rect id="Rectangle_703" data-name="Rectangle 703" width="28" height="28" rx="5" fill="#ffb02c"/>
  <g id="Icon_feather-box" data-name="Icon feather-box" transform="translate(3.5 3.997)">
    <path id="Path_3508" data-name="Path 3508" d="M17.051,12.764V7.185a1.4,1.4,0,0,0-.7-1.206L11.473,3.19a1.4,1.4,0,0,0-1.395,0L5.2,5.979a1.4,1.4,0,0,0-.7,1.206v5.578a1.4,1.4,0,0,0,.7,1.206l4.881,2.789a1.4,1.4,0,0,0,1.395,0l4.881-2.789a1.4,1.4,0,0,0,.7-1.206Z" fill="none" stroke="#fff" stroke-linecap="round" stroke-linejoin="round" stroke-width="2"/>
    <path id="Path_3509" data-name="Path 3509" d="M4.905,10.44l6.087,3.521L17.08,10.44" transform="translate(-0.217 -3.98)" fill="none" stroke="#fff" stroke-linecap="round" stroke-linejoin="round" stroke-width="2"/>
    <path id="Path_3510" data-name="Path 3510" d="M18,25.029V18" transform="translate(-7.224 -8.026)" fill="none" stroke="#fff" stroke-linecap="round" stroke-linejoin="round" stroke-width="2"/>
  </g>
</svg>
